# xmcd
#
# Track frame offsets:
#	150
#	16003
#	28348
#	47231
#	65994
#	82506
#
# Disc length: 1361 seconds
#
# Revision: 0
# Processed by: cddbd v1.5.2PL0 Copyright (c) Steve Scherf et al.
# Submitted via: EasyCDDAExtractor 12.0.4.1
#
DISCID=44054f06
DTITLE=John Rich - For The Kids
DYEAR=2011
DGENRE=Country
TTITLE0=For The Kids
TTITLE1=Thank God For Kids
TTITLE2=Where Angels Hang Around
TTITLE3=She's A Butterfly
TTITLE4=Simplify
TTITLE5=Rescue Me
EXTD=
EXTT0=
EXTT1=
EXTT2=
EXTT3=
EXTT4=
EXTT5=
PLAYORDER=
